<svg width="63" height="68" viewBox="0 0 63 68" fill="none" xmlns="http://www.w3.org/2000/svg">
<path fill-rule="evenodd" clip-rule="evenodd" d="M8.22325 0.0025205H54.0597C56.3235 0.0025205 58.378 0.9277 59.8679 2.41757C61.3578 3.90743 62.2829 5.9645 62.2829 8.22829V25.1992C62.2829 27.4629 61.3578 29.52 59.8679 31.0099C59.2906 31.5872 58.6276 32.0813 57.8991 32.467L29.7681 13.7617C28.7042 13.0357 27.4337 12.6853 26.1455 12.766C22.9742 12.9651 20.5364 15.728 20.7381 18.8994L21.6583 33.4224H8.22325C5.95946 33.4224 3.90491 32.4972 2.41504 31.0074C0.925179 29.5175 0 27.4604 0 25.1966V8.22577C0 5.96198 0.925179 3.90491 2.41504 2.41504C3.90491 0.925178 5.96198 0 8.22325 0V0.0025205Z" fill="#012A38"/>
<path fill-rule="evenodd" clip-rule="evenodd" d="M27.6084 16.9557L58.0208 37.1786C58.9056 37.766 59.1501 38.9583 58.5628 39.8457C58.3661 40.1407 58.104 40.365 57.8065 40.5112L51.2546 44.2951L59.4527 58.4905C59.9795 59.4106 59.6619 60.5828 58.7443 61.1122L47.2564 67.7448C46.3388 68.2716 45.1691 67.9565 44.6372 67.0414L44.6347 67.0439L36.4392 52.8511L29.7814 56.6956C28.8613 57.2275 27.6865 56.9149 27.1521 55.9947C26.9983 55.7275 26.9151 55.4401 26.8975 55.1502L24.5858 18.6573C24.5202 17.5986 25.3244 16.6835 26.3857 16.6179C26.837 16.5902 27.2605 16.7188 27.6058 16.9582L27.6084 16.9557Z" fill="#FF3300"/>
</svg>
