<svg width="73" height="65" viewBox="0 0 73 65" fill="none" xmlns="http://www.w3.org/2000/svg">
<path d="M43.2871 45.9379C45.0135 44.1437 46.0799 41.7131 46.0799 39.0354C46.0799 33.5344 41.6046 29.0624 36.1069 29.0624C30.6059 29.0624 26.1339 33.5377 26.1339 39.0354C26.1339 41.7131 27.2003 44.1437 28.9267 45.9379C25.4095 47.1735 22.8672 50.491 22.8672 54.4246V59.5837C22.8672 62.5694 25.2978 65 28.2835 65H43.9303C46.916 65 49.3466 62.5694 49.3466 59.5837V54.4246C49.3466 50.491 46.8043 47.1735 43.2871 45.9379Z" fill="#012A38"/>
<path d="M61.2752 9.97331C61.2752 4.4723 56.7999 0.000305176 51.3022 0.000305176C45.8045 0.000305176 41.3292 4.47559 41.3292 9.97331C41.3292 12.651 42.3956 15.0816 44.122 16.8757C40.6048 18.1113 38.0625 21.4288 38.0625 25.3625V25.6062C40.9095 26.0192 43.4653 27.3089 45.4592 29.2047C46.1227 22.4309 51.7862 17.1093 58.702 16.9741C58.6275 16.9437 58.5598 16.9064 58.4853 16.8793C60.2118 15.0852 61.2782 12.6546 61.2782 9.97692L61.2752 9.97331Z" fill="#012A38"/>
<path d="M26.7535 29.2044C28.744 27.312 31.3032 26.0189 34.1502 25.6059V25.3622C34.1502 21.4285 31.6079 18.111 28.0907 16.8754C29.8171 15.0813 30.8835 12.6507 30.8835 9.973C30.8835 4.47199 26.4082 0 20.9105 0C15.4095 0 10.9375 4.47529 10.9375 9.973C10.9375 12.6507 12.0039 15.0813 13.7303 16.8754C13.6559 16.9025 13.5882 16.9431 13.5137 16.9702C20.4263 17.109 26.09 22.4306 26.7564 29.2007L26.7535 29.2044Z" fill="#012A38"/>
<path d="M66.1572 37.4441C67.8837 35.65 68.95 33.2194 68.95 30.5417C68.95 25.0441 64.4748 20.5687 58.977 20.5687C53.476 20.5687 49.004 25.044 49.004 30.5417C49.004 33.2194 50.0704 35.65 51.7969 37.4441C51.0318 37.7116 50.3243 38.0975 49.6676 38.5477C49.6744 38.7102 49.6913 38.8659 49.6913 39.0318C49.6913 41.0392 49.2512 42.9891 48.4219 44.763C51.2384 47.1156 52.9615 50.6295 52.9615 54.4214V56.5032H66.8039C69.7896 56.5032 72.2202 54.0727 72.2202 51.0869V45.9279C72.2202 41.9942 69.6779 38.6767 66.1607 37.4411L66.1572 37.4441Z" fill="#FF3300"/>
<path d="M19.2553 54.4211C19.2553 50.6297 20.9784 47.1192 23.7949 44.7627C22.9621 42.9855 22.5254 41.0356 22.5254 39.0315C22.5254 38.869 22.5424 38.7099 22.5491 38.5474C21.8924 38.0972 21.1849 37.7147 20.4199 37.4439C22.1463 35.6497 23.2127 33.2192 23.2127 30.5415C23.2127 25.0439 18.7374 20.5685 13.2397 20.5685C7.74199 20.5685 3.2667 25.0438 3.2667 30.5415C3.2667 33.2192 4.33307 35.6497 6.05954 37.4439C2.5423 38.6795 0 41.997 0 45.9307V51.0897C0 54.0755 2.43059 56.506 5.41634 56.506H19.2588V54.4242L19.2553 54.4211Z" fill="#FF3300"/>
</svg>
