<svg width="65" height="65" viewBox="0 0 65 65" fill="none" xmlns="http://www.w3.org/2000/svg">
<path d="M2.40741 31.2963H31.2963V2.40741C31.2963 1.08333 30.213 0 28.8889 0H2.40741C1.08333 0 0 1.08333 0 2.40741V28.8889C0 30.213 1.08333 31.2963 2.40741 31.2963Z" fill="#012A38"/>
<path d="M36.1105 65H62.592C63.9161 65 64.9994 63.9167 64.9994 62.5926V36.1111C64.9994 34.7871 63.9161 33.7037 62.592 33.7037H33.7031V62.5926C33.7031 63.9167 34.7865 65 36.1105 65Z" fill="#012A38"/>
<path d="M15.6481 65C24.2904 65 31.2963 57.9941 31.2963 49.3519C31.2963 40.7097 24.2904 33.7037 15.6481 33.7037C7.00591 33.7037 0 40.7097 0 49.3519C0 57.9941 7.00591 65 15.6481 65Z" fill="#FF3300"/>
<path d="M49.3513 31.2963C57.9935 31.2963 64.9994 24.2904 64.9994 15.6481C64.9994 7.00591 57.9935 0 49.3513 0C40.709 0 33.7031 7.00591 33.7031 15.6481C33.7031 24.2904 40.709 31.2963 49.3513 31.2963Z" fill="#FF3300"/>
</svg>
