<svg width="68" height="68" viewBox="0 0 68 68" fill="none" xmlns="http://www.w3.org/2000/svg">
<path d="M21 1L13 8H21V1Z" fill="#012A38"/>
<path d="M63 14.5712C63 12.0456 60.7625 10 58 10V18H63V14.5712Z" fill="#012A38"/>
<path d="M5 14.5716V18H10V10C7.23752 10 5 12.046 5 14.5716Z" fill="#012A38"/>
<path d="M22.1818 18H45.8182C46.4711 18 47 18.663 47 19.2V28.8C47 29.463 46.4711 30 45.8182 30H22.1818C21.5289 30 21 29.337 21 28.8V19.2C21 18.537 21.5289 18 22.1818 18Z" fill="#012A38"/>
<path d="M56 4.8696C56 2.17917 53.8122 0 51.1112 0H22.9999V9.7392C22.9999 10.4118 22.453 10.9566 21.7777 10.9566H12V56H55.9996L56 4.8696ZM43.7779 52.3486H19.3337C18.6584 52.3486 18.1114 51.8038 18.1114 51.1312C18.1114 50.4586 18.6584 49.9138 19.3337 49.9138H43.7779C44.4532 49.9138 45.0001 50.4586 45.0001 51.1312C45.0001 51.8038 44.4532 52.3486 43.7779 52.3486ZM48.6667 47.479H19.3337C18.6584 47.479 18.1114 46.9342 18.1114 46.2616C18.1114 45.589 18.6584 45.0442 19.3337 45.0442H48.6667C49.342 45.0442 49.8889 45.589 49.8889 46.2616C49.8889 46.9342 49.342 47.479 48.6667 47.479ZM48.6667 42.6094H19.3337C18.6584 42.6094 18.1114 42.0646 18.1114 41.392C18.1114 40.7194 18.6584 40.1746 19.3337 40.1746H48.6667C49.342 40.1746 49.8889 40.7194 49.8889 41.392C49.8889 42.0646 49.342 42.6094 48.6667 42.6094ZM48.6667 37.7398H19.3337C18.6584 37.7398 18.1114 37.195 18.1114 36.5224C18.1114 35.8498 18.6584 35.305 19.3337 35.305H48.6667C49.342 35.305 49.8889 35.8498 49.8889 36.5224C49.8889 37.195 49.342 37.7398 48.6667 37.7398ZM49.8889 29.2176C49.8889 31.2324 48.245 32.8698 46.2223 32.8698H21.7781C19.7554 32.8698 18.1114 31.2324 18.1114 29.2176V19.4784C18.1114 17.4636 19.7554 15.8262 21.7781 15.8262H46.2223C48.245 15.8262 49.8889 17.4636 49.8889 19.4784V29.2176Z" fill="#012A38"/>
<path d="M5 58L8.88128 56.1298L10 55.5946V21H5V58Z" fill="#012A38"/>
<path d="M58 21H63V56H58V21Z" fill="#012A38"/>
<path d="M11 58H57V68H11V58Z" fill="#FF3300"/>
<path d="M63.4286 58H60V68H63.4286C65.9543 68 68 65.7625 68 63C68 60.2375 65.9543 58 63.4286 58Z" fill="#FF3300"/>
<path d="M9 67V59L0 62.9999L9 67Z" fill="#FF3300"/>
</svg>
