<svg width="68" height="68" viewBox="0 0 68 68" fill="none" xmlns="http://www.w3.org/2000/svg">
<path d="M47.0055 3.28564L37.6094 30.1941L64.6339 20.8555L51.0972 18.6464C50.1351 18.4894 49.3806 17.7358 49.2224 16.7738L47.0055 3.28564Z" fill="#FF3300"/>
<path d="M31.7765 33.1225L34.732 24.6591C29.3486 24.1777 24.7031 28.6392 24.7031 33.9897C24.7031 39.1545 28.8381 43.3564 33.9209 43.3564C39.3552 43.3564 43.594 38.452 43.0975 33.102L34.6616 36.017C32.9287 36.6158 31.1654 34.8734 31.7765 33.1225Z" fill="#012A38"/>
<path d="M66.6294 24.9703L59.2275 27.528C63.3486 43.786 50.7335 60.2192 33.9211 60.2192C19.5238 60.2192 7.81074 48.4528 7.81074 33.9897C7.81074 17.2371 24.0425 4.39707 40.3513 8.56726L42.9248 1.19749C21.6147 -4.69967 0 11.9679 0 33.9897C0 52.743 15.217 68 33.9211 68C55.9842 68 72.4792 46.2411 66.6294 24.9703Z" fill="#012A38"/>
<path d="M12.3516 33.9897C12.3516 45.9487 22.0276 55.6782 33.9211 55.6782C47.6642 55.6782 58.0459 42.3546 54.9177 29.0175L47.4729 31.5901C48.9099 39.8899 42.4099 47.8974 33.9211 47.8974C26.3345 47.8974 20.1623 41.6584 20.1623 33.9898C20.1623 25.5829 27.9101 18.8291 36.2597 20.2846L38.8478 12.8731C25.4656 9.71243 12.3516 20.3106 12.3516 33.9897Z" fill="#012A38"/>
</svg>
