<svg width="68" height="68" viewBox="0 0 68 68" fill="none" xmlns="http://www.w3.org/2000/svg">
<path d="M46.0077 27.348C43.8671 25.43 40.2186 22.6253 35.8047 21.0511C38.0977 22.93 39.5664 25.7816 39.5664 28.9691C39.5664 32.1527 38.1055 35.0003 35.8164 36.8793C40.2695 35.2895 43.9531 32.4457 46.1134 30.5082C46.836 29.8558 47.379 29.3129 47.7072 28.973C47.3634 28.6136 46.785 28.0355 46.0077 27.348Z" fill="#FF3300"/>
<path d="M29.3281 24.973C27.125 24.973 25.332 26.766 25.332 28.9691C25.332 31.1761 27.125 32.9691 29.3281 32.9691C31.5312 32.9691 33.3281 31.1761 33.3281 28.9691C33.3281 26.766 31.5312 24.973 29.3281 24.973Z" fill="#012A38"/>
<path d="M19.0934 28.969C19.0934 25.7815 20.5582 22.9299 22.8512 21.051C18.4371 22.6252 14.7965 25.4299 12.6562 27.344C11.875 28.0354 11.2968 28.6135 10.9531 28.969C11.2812 29.3089 11.8242 29.8518 12.5469 30.5081C14.7071 32.4456 18.3867 35.2893 22.8359 36.8753C20.5547 34.9964 19.0934 32.1525 19.0934 28.969Z" fill="#FF3300"/>
<path d="M66.8394 61.477L53.1874 47.825C52.9726 47.6062 52.7265 47.4304 52.4687 47.2742C61.3789 35.7942 60.5742 19.1612 50.039 8.6262C44.5078 3.095 37.152 0.0480957 29.332 0.0480957C21.5117 0.0480957 14.156 3.095 8.62498 8.6262C3.09398 14.1574 0.046875 21.5132 0.046875 29.3372C0.046875 37.1614 3.09378 44.5172 8.62498 50.0482C14.1562 55.5792 21.512 58.6263 29.332 58.6263C35.914 58.6263 42.16 56.4622 47.273 52.4818C47.4253 52.7357 47.605 52.9779 47.8198 53.1966L61.4758 66.8486C62.1946 67.5674 63.1438 67.9619 64.1594 67.9619C65.1711 67.9619 66.1242 67.5674 66.8391 66.8486C67.5579 66.1299 67.9563 65.1806 67.9563 64.165C67.9524 63.1455 67.5582 62.1918 66.8394 61.477ZM29.3314 50.782C23.6009 50.782 18.2144 48.5515 14.1634 44.5008C5.80013 36.1375 5.80013 22.5318 14.1634 14.1648C18.2181 10.114 23.6048 7.88358 29.3314 7.88358C35.0619 7.88358 40.4444 10.1141 44.4954 14.1648C52.8587 22.5281 52.8587 36.1378 44.4993 44.5008C40.4485 48.5516 35.0619 50.782 29.3314 50.782Z" fill="#012A38"/>
<path d="M29.3281 19.906C24.332 19.906 20.2656 23.9724 20.2656 28.9685C20.2656 33.9685 24.332 38.0349 29.3281 38.0349C34.3281 38.0349 38.3945 33.9685 38.3945 28.9685C38.3945 23.9724 34.3281 19.906 29.3281 19.906ZM29.3281 34.14C26.4804 34.14 24.1601 31.8197 24.1601 28.9681C24.1601 26.1204 26.4765 23.8001 29.3281 23.8001C32.1797 23.8001 34.5 26.1204 34.5 28.9681C34.5 31.8197 32.1797 34.14 29.3281 34.14Z" fill="#FF3300"/>
</svg>
