<svg width="120" height="80" xmlns="http://www.w3.org/2000/svg"><g fill-rule="nonzero" fill="none"><path d="M16.934 72.486l-.608-.608.62-.62a.574.574 0 00-.811-.812l-.62.62-.61-.608a.574.574 0 00-.81.811l.608.609-.62.62a.574.574 0 00.812.81l.62-.619.608.609a.574.574 0 00.811-.812zM26.52 1.806l-.497-.498.507-.507a.47.47 0 00-.664-.664l-.507.508-.498-.498a.47.47 0 00-.664.664l.498.497-.507.507a.47.47 0 00.664.664l.507-.507.498.498a.47.47 0 00.663-.664zM61.377 76.43a.675.675 0 00-.956 0l-.73.73-.716-.716a.676.676 0 00-.956.955l.717.717-.73.73a.676.676 0 10.956.956l.73-.73.716.716a.676.676 0 00.956-.955l-.717-.717.73-.73a.675.675 0 000-.955zM120 37.207a.675.675 0 00-.676-.676h-1.032v-1.013a.676.676 0 00-1.351 0v1.014h-1.033a.676.676 0 100 1.351h1.033v1.013a.676.676 0 001.351 0v-1.014h1.032a.675.675 0 00.676-.675z" fill="#D2D3D4"/><circle fill="#D2D3D4" cx="98.735" cy="4.622" r="1.159"/><circle fill="#D2D3D4" cx="84.841" cy="75.209" r="1.159"/><circle fill="#D2D3D4" cx="61.575" cy="13.544" r=".692"/><path d="M114.234 52.479a2.99 2.99 0 100 5.978 2.99 2.99 0 000-5.978zm0 4.627a1.638 1.638 0 110-3.276 1.638 1.638 0 010 3.276zM.745 18.308a.744.744 0 100 1.489.744.744 0 000-1.49zM2.302 42.931a2.153 2.153 0 100 4.306 2.153 2.153 0 000-4.306zm0 3.333a1.18 1.18 0 110-2.36 1.18 1.18 0 010 2.36z" fill="#D2D3D4"/><path d="M113.559 18.729L64.463 5.573a.899.899 0 00-1.104.637L48.7 60.92a.9.9 0 00.638 1.103l49.096 13.155a.9.9 0 001.104-.637l14.659-54.709a.9.9 0 00-.637-1.103z" fill="#F2F2F2" style="mix-blend-mode:multiply"/><path fill="#FFF" d="M4.067 19.287L51.829 1.903l19.372 53.224L23.44 72.511z"/><path d="M23.438 73.412a.9.9 0 01-.846-.593L3.22 19.595a.9.9 0 01.539-1.154L51.52 1.057a.902.902 0 011.155.538l19.372 53.224a.9.9 0 01-.538 1.155L23.746 73.358a.899.899 0 01-.308.054zM5.221 19.826l18.756 51.53 46.07-16.767L51.29 3.057 5.221 19.826z" fill="#B4B5BF"/><path fill="#F2F2F2" style="mix-blend-mode:multiply" d="M58.769 23.602l-10.42 38.884 21.698-7.897z"/><path d="M51.575 34.95l-11.128-6.038a1.161 1.161 0 00-1.585.576l-1.647 4.177-6.182-3.33a1.127 1.127 0 00-1.615.676L25.47 44.537a1.126 1.126 0 001.467 1.373l17.34-6.31 7.146-2.602a1.126 1.126 0 00.152-2.048zm-7.586 2.357L39.24 34.67l1.25-3.172 7.813 4.239-4.314 1.57zm-15.733 5.726l2.934-10.055 9.956 5.363-12.89 4.692z" fill="#D3D3DC"/><circle fill="#D3D3DC" transform="rotate(-20 41.505 22.805)" cx="41.505" cy="22.805" r="1.334"/><path fill="#C2C2CC" d="M21.325 58.057l42.12-15.33 3.775 10.371-42.12 15.33z"/><path d="M40.288 55.984a1.689 1.689 0 01-.849 2.199 7.364 7.364 0 01-.809.337l-.61.222.672 1.845-1.372.5-1.915-5.26 1.982-.721c.274-.104.553-.191.837-.262a1.689 1.689 0 012.064 1.14zm-1.434.521a.599.599 0 00-.786-.43 5.617 5.617 0 00-.369.126l-.533.194.466 1.28.533-.194a5.61 5.61 0 00.363-.14.599.599 0 00.326-.836zM45.466 58.121l-3.178-2.78c.24.518.41.983.52 1.288l.79 2.172-1.371.5-1.915-5.26 1.708-.621 3.317 2.9a21.579 21.579 0 01-.547-1.362l-.819-2.248 1.372-.5 1.914 5.26-1.791.651zM52.08 52.538l1.021 2.804-1.067.389-.423-.76-.018.661a1.838 1.838 0 01-1.09.777c-1.402.51-2.724-.062-3.367-1.83a2.739 2.739 0 011.665-3.748c1.501-.547 2.563-.027 3.047.971l.035.074-1.372.5-.043-.072a.994.994 0 00-1.316-.461c-.67.244-1.027.995-.614 2.13.482 1.327 1.218 1.568 1.866 1.332.523-.165.85-.686.77-1.23l-1.022.373-.388-1.067 2.317-.843zM52.963 59.332l14.66-54.71 49.097 13.156-14.66 54.71z" fill="#FFF"/><path d="M102.06 73.389a.912.912 0 01-.234-.031L52.73 60.202a.9.9 0 01-.637-1.103l14.66-54.71a.899.899 0 011.103-.637l49.096 13.156a.9.9 0 01.637 1.103l-14.66 54.71a.9.9 0 01-.87.667zM54.066 58.695l47.357 12.69 14.192-52.97L68.26 5.726 54.066 58.695z" fill="#B4B5BF"/><path d="M97.556 44.703l-5.653-11.33a1.161 1.161 0 00-1.63-.436l-3.744 2.477-3.153-6.274a1.127 1.127 0 00-1.71-.373l-10.993 8.815a1.126 1.126 0 00.413 1.967l17.824 4.775 7.346 1.969a1.126 1.126 0 001.3-1.59zm-7.567-2.421l-2.377-4.884 2.844-1.881 3.968 7.953-4.435-1.188zm-16.172-4.334l8.171-6.553 5.079 10.104-13.25-3.55z" fill="#D3D3DC"/><circle fill="#D3D3DC" transform="rotate(-75 96.272 28.977)" cx="96.272" cy="28.977" r="1.334"/><path fill="#C2C2CC" d="M56.665 56.941l2.857-10.66 43.295 11.6-2.856 10.661z"/><path d="M73.713 56.182c-.068.251-.114.423-.244.817-.309.933-1.11 1.448-2.513 1.073-1.465-.393-1.863-1.322-1.587-2.508l.055-.237 1.41.377-.047.24c-.142.717.086.997.485 1.104.392.105.663-.091.818-.512.064-.176.11-.348.154-.512l.88-3.283 1.41.377-.821 3.064zM79.476 56.324a1.689 1.689 0 01-1.957 1.315 7.364 7.364 0 01-.856-.188l-.627-.168-.508 1.896-1.41-.378 1.448-5.406 2.037.546c.284.072.563.16.836.266a1.689 1.689 0 011.037 2.117zm-1.474-.395a.6.6 0 00-.397-.803c-.1-.035-.225-.069-.374-.109l-.549-.147-.352 1.316.548.147c.15.04.275.073.378.093a.6.6 0 00.746-.497zM83.306 61.263l-4.144-1.11 1.448-5.406 4.067 1.09-.294 1.096-2.656-.711-.281 1.05 2.499.669-.294 1.097-2.5-.67-.285 1.066 2.734.732zM89.898 59.94l-.772 2.883-1.097-.294.09-.866-.395.532a1.838 1.838 0 01-1.338.011c-1.442-.386-2.196-1.613-1.71-3.43a2.739 2.739 0 013.515-2.116c1.543.414 2.114 1.449 1.938 2.544l-.013.08-1.41-.378.005-.082a.994.994 0 00-.813-1.134c-.69-.184-1.413.227-1.725 1.394-.366 1.363.098 1.983.764 2.161a1.118 1.118 0 001.336-.566l-1.05-.281.293-1.096 2.382.638z" fill="#FFF"/></g></svg>