<svg width="808" height="109" viewBox="0 0 808 109" fill="none" xmlns="http://www.w3.org/2000/svg">
<path d="M170.1 54.1999C170.1 35.5999 184.4 22.3999 204.5 22.3999C217.4 22.3999 227.6 27.4999 232.1 37.4999L215.6 41.8999C212.5 38.5999 208.6 37.0999 204.4 37.0999C195.3 37.0999 188.2 43.3999 188.2 54.1999C188.2 64.9999 195.3 71.2999 204.4 71.2999C208.7 71.2999 212.5 69.7999 215.6 66.4999L232.1 70.3999C227.6 80.1999 217.4 85.8999 204.5 85.8999C184.5 85.9999 170.1 72.7999 170.1 54.1999Z" fill="#012A38"/>
<path d="M304.7 49.8V85.1H286.8V52.5C286.8 42.5 282.2 37.9 274.3 37.9C265.7 37.9 259.5 43.2 259.5 54.5V85H241.6V4.3L259.5 0V29.8C264.3 25 271.2 22.5 279.1 22.5C293.7 22.5 304.7 31 304.7 49.8Z" fill="#012A38"/>
<path d="M382.7 20.5V85.1H365.6V78C361.1 83.4 354.6 86 346.3 86C328.9 86 315.5 73.6 315.5 54.2C315.5 34.8 328.9 22.4 346.3 22.4C353.9 22.4 360.3 24.8 364.8 29.9V24.9L382.7 20.5ZM365.2 54.2C365.2 43.5 358.3 37.1 349.5 37.1C340.6 37.1 333.7 43.5 333.7 54.2C333.7 64.9 340.6 71.3 349.5 71.3C358.3 71.3 365.2 64.9 365.2 54.2Z" fill="#012A38"/>
<path d="M436.3 22.5001V39.0001C434.8 38.9001 433.7 38.8001 432.3 38.8001C422.4 38.8001 415.9 44.2001 415.9 56.0001V85.1001H398V24.7001L415.1 20.6001V31.6001C419.4 25.6001 426.8 22.5001 436.3 22.5001Z" fill="#012A38"/>
<path d="M509.6 20.5V74.7C509.6 97.6 497.2 108.2 475 108.2C463.3 108.2 452 105.3 444.7 99.7L451.8 86.9C457.1 91.1 465.7 93.9 473.6 93.9C486.2 93.9 491.7 88.2 491.7 77V74.4C487 79.6 480.2 82.1 472.2 82.1C455.1 82.1 441.4 70.3 441.4 52.3C441.4 34.3 455.2 22.5 472.2 22.5C480.8 22.5 487.9 25.4 492.6 31.3V24.7L509.6 20.5ZM492 52.3C492 43.2 485.2 37.2 475.8 37.2C466.4 37.2 459.5 43.3 459.5 52.3C459.5 61.4 466.4 67.4 475.8 67.4C485.2 67.4 492 61.3 492 52.3Z" fill="#012A38"/>
<path d="M541 64.3999C543.9 69.1999 549.3 71.6999 556.4 71.6999C562.9 71.6999 567.6 69.7999 571.9 65.6999L581.4 75.9999C575.7 82.4999 567.1 85.9999 555.9 85.9999C534.6 85.9999 520.7 72.5999 520.7 54.1999C520.7 35.6999 534.7 22.3999 553.7 22.3999C570.8 22.3999 584.8 33.7999 585.5 52.6999L541 64.3999ZM538.3 53.7999L568.4 46.5999C566.7 40.2999 561.2 35.9999 553.7 35.9999C544.8 35.9999 538.3 41.6999 538.3 53.7999Z" fill="#012A38"/>
<path d="M691 64.3999C693.9 69.1999 699.3 71.6999 706.4 71.6999C712.9 71.6999 717.6 69.7999 721.9 65.6999L731.4 75.9999C725.7 82.4999 717.1 85.9999 705.9 85.9999C684.6 85.9999 670.7 72.5999 670.7 54.1999C670.7 35.6999 684.7 22.3999 703.7 22.3999C720.8 22.3999 734.8 33.7999 735.5 52.6999L691 64.3999ZM688.3 53.7999L718.4 46.5999C716.7 40.2999 711.2 35.9999 703.7 35.9999C694.8 35.9999 688.3 41.6999 688.3 53.7999Z" fill="#012A38"/>
<path d="M762.7 64.3999C765.6 69.1999 771 71.6999 778.1 71.6999C784.6 71.6999 789.3 69.7999 793.6 65.6999L803.1 75.9999C797.4 82.4999 788.8 85.9999 777.6 85.9999C756.3 85.9999 742.4 72.5999 742.4 54.1999C742.4 35.6999 756.4 22.3999 775.4 22.3999C792.5 22.3999 806.5 33.7999 807.2 52.6999L762.7 64.3999ZM760 53.7999L790.1 46.5999C788.4 40.2999 782.9 35.9999 775.4 35.9999C766.5 35.9999 760 41.6999 760 53.7999Z" fill="#012A38"/>
<path d="M663.7 54.2C663.7 73.6 650.3 86 633 86C624.7 86 618.1 83.4 613.6 78V85.1H596.5V4.4L614.4 0V29.9C619 24.9 625.3 22.4 633 22.4C650.3 22.5 663.7 34.9 663.7 54.2ZM645.6 54.2C645.6 43.5 638.8 37.1 629.9 37.1C621 37.1 614.2 43.5 614.2 54.2C614.2 64.9 621 71.3 629.9 71.3C638.9 71.3 645.6 64.9 645.6 54.2Z" fill="#012A38"/>
<path d="M35.6001 54.1001L107 37.1001V0.100098H70.0001L35.6001 54.1001Z" fill="#FF3300"/>
<path d="M0.200195 53.5C0.200195 57.9 0.700198 62.2 1.8002 66.3L35.6002 54.1001L1.50019 41.8C0.700195 45.6 0.200195 49.5 0.200195 53.5Z" fill="#FF3300"/>
<path d="M12.8003 19.0001L35.6003 54.1001L46.1003 0.600098C32.8003 2.5001 21.1003 9.2001 12.8003 19.0001Z" fill="#FF3300"/>
<path d="M35.6001 54.1001L107 71.1001V108.2H70.0001L35.6001 54.1001Z" fill="#FF3300"/>
<path d="M12.8003 89.2001L35.6003 54.1001L46.1003 107.6C32.8003 105.8 21.1003 99.0001 12.8003 89.2001Z" fill="#FF3300"/>
</svg>
