<svg width="82" height="82" viewBox="0 0 82 82" fill="none" xmlns="http://www.w3.org/2000/svg">
<rect width="82" height="82" fill="#EFEFEF" fill-opacity="0.5"/>
<path d="M31.6836 40.975L67.3506 32.4829V14H48.8677L31.6836 40.975Z" fill="#FF3300"/>
<path d="M14 40.6756C14 42.8736 14.2498 45.0216 14.7993 47.0697L31.6836 40.9754L14.6494 34.8311C14.2498 36.7293 14 38.6775 14 40.6756Z" fill="#FF3300"/>
<path d="M20.2942 23.441L31.6836 40.9748L36.9288 14.2495C30.2849 15.1986 24.4403 18.5455 20.2942 23.441Z" fill="#FF3300"/>
<path d="M31.6836 40.9751L67.3506 49.4672V68.0001H48.8677L31.6836 40.9751Z" fill="#FF3300"/>
<path d="M20.2942 58.5089L31.6836 40.9751L36.9288 67.7004C30.2849 66.8012 24.4403 63.4043 20.2942 58.5089Z" fill="#FF3300"/>
</svg>
