<svg width="418" height="56" viewBox="0 0 418 56" fill="none" xmlns="http://www.w3.org/2000/svg">
<path d="M88.002 28.0517C88.002 18.4251 95.4089 11.5933 105.82 11.5933C112.502 11.5933 117.785 14.2328 120.116 19.4085L111.569 21.6857C109.964 19.9778 107.944 19.2014 105.768 19.2014C101.055 19.2014 97.3772 22.4621 97.3772 28.0517C97.3772 33.6414 101.055 36.902 105.768 36.902C107.996 36.902 109.964 36.1256 111.569 34.4177L120.116 36.4362C117.785 41.5083 112.502 44.4584 105.82 44.4584C95.4607 44.5101 88.002 37.6783 88.002 28.0517Z" fill="#012A38"/>
<path d="M157.721 25.7745V44.0444H148.449V27.1719C148.449 21.9963 146.067 19.6155 141.975 19.6155C137.52 19.6155 134.309 22.3586 134.309 28.207V43.9926H125.037V2.22551L134.309 0V15.4233C136.795 12.939 140.369 11.6451 144.461 11.6451C152.023 11.6451 157.721 16.0444 157.721 25.7745Z" fill="#012A38"/>
<path d="M198.122 10.6098V44.0442H189.265V40.3695C186.934 43.1643 183.567 44.51 179.268 44.51C170.256 44.51 163.315 38.0922 163.315 28.0516C163.315 18.0109 170.256 11.5932 179.268 11.5932C183.205 11.5932 186.52 12.8353 188.851 15.4749V12.8871L198.122 10.6098ZM189.058 28.0516C189.058 22.5137 185.484 19.2013 180.926 19.2013C176.316 19.2013 172.742 22.5137 172.742 28.0516C172.742 33.5895 176.316 36.9018 180.926 36.9018C185.484 36.9018 189.058 33.5895 189.058 28.0516Z" fill="#012A38"/>
<path d="M225.885 11.6453V20.185C225.108 20.1332 224.538 20.0815 223.813 20.0815C218.685 20.0815 215.318 22.8763 215.318 28.9835V44.0445H206.047V12.7839L214.904 10.6619V16.3551C217.131 13.2497 220.964 11.6453 225.885 11.6453Z" fill="#012A38"/>
<path d="M263.853 10.6098V38.6616C263.853 50.5137 257.43 55.9998 245.931 55.9998C239.871 55.9998 234.018 54.4989 230.237 51.6006L233.914 44.9758C236.659 47.1495 241.114 48.5987 245.206 48.5987C251.732 48.5987 254.581 45.6486 254.581 39.8519V38.5063C252.147 41.1976 248.625 42.4915 244.481 42.4915C235.624 42.4915 228.527 36.3843 228.527 27.0682C228.527 17.7521 235.675 11.6449 244.481 11.6449C248.935 11.6449 252.613 13.1458 255.047 16.1995V12.7836L263.853 10.6098ZM254.737 27.0682C254.737 22.3584 251.214 19.2531 246.345 19.2531C241.477 19.2531 237.903 22.4102 237.903 27.0682C237.903 31.778 241.477 34.8834 246.345 34.8834C251.214 34.8834 254.737 31.7263 254.737 27.0682Z" fill="#012A38"/>
<path d="M280.117 33.3308C281.619 35.8151 284.416 37.109 288.093 37.109C291.46 37.109 293.894 36.1256 296.122 34.0036L301.042 39.3345C298.09 42.6987 293.636 44.5101 287.834 44.5101C276.802 44.5101 269.602 37.5748 269.602 28.0517C269.602 18.4768 276.853 11.5933 286.695 11.5933C295.552 11.5933 302.804 17.4935 303.166 27.2754L280.117 33.3308ZM278.718 27.8447L294.309 24.1182C293.428 20.8576 290.579 18.6321 286.695 18.6321C282.085 18.6321 278.718 21.5822 278.718 27.8447Z" fill="#012A38"/>
<path d="M357.812 33.3308C359.314 35.8151 362.111 37.109 365.789 37.109C369.155 37.109 371.59 36.1256 373.817 34.0036L378.738 39.3345C375.785 42.6987 371.331 44.5101 365.53 44.5101C354.497 44.5101 347.297 37.5748 347.297 28.0517C347.297 18.4768 354.549 11.5933 364.39 11.5933C373.247 11.5933 380.499 17.4935 380.861 27.2754L357.812 33.3308ZM356.413 27.8447L372.004 24.1182C371.124 20.8576 368.275 18.6321 364.39 18.6321C359.78 18.6321 356.413 21.5822 356.413 27.8447Z" fill="#012A38"/>
<path d="M394.951 33.3308C396.453 35.8151 399.25 37.109 402.927 37.109C406.294 37.109 408.728 36.1256 410.956 34.0036L415.876 39.3345C412.924 42.6987 408.469 44.5101 402.668 44.5101C391.636 44.5101 384.436 37.5748 384.436 28.0517C384.436 18.4768 391.687 11.5933 401.529 11.5933C410.386 11.5933 417.638 17.4935 418 27.2754L394.951 33.3308ZM393.552 27.8447L409.143 24.1182C408.262 20.8576 405.413 18.6321 401.529 18.6321C396.919 18.6321 393.552 21.5822 393.552 27.8447Z" fill="#012A38"/>
<path d="M343.671 28.0518C343.671 38.0924 336.73 44.5102 327.769 44.5102C323.47 44.5102 320.052 43.1645 317.721 40.3697V44.0444H308.864V2.27727L318.135 0V15.475C320.518 12.8872 323.781 11.5933 327.769 11.5933C336.73 11.6451 343.671 18.0628 343.671 28.0518ZM334.296 28.0518C334.296 22.5139 330.774 19.2015 326.164 19.2015C321.554 19.2015 318.032 22.5139 318.032 28.0518C318.032 33.5897 321.554 36.902 326.164 36.902C330.825 36.902 334.296 33.5897 334.296 28.0518Z" fill="#012A38"/>
<path d="M18.3367 28L55.3196 19.2015V0.0517426H36.1548L18.3367 28Z" fill="#FF3300"/>
<path d="M0 27.6896C0 29.9668 0.258985 32.1923 0.82875 34.3143L18.3361 28.0001L0.673358 21.6341C0.258983 23.6009 0 25.6193 0 27.6896Z" fill="#FF3300"/>
<path d="M6.52661 9.83376L18.3363 28.0001L23.7749 0.310654C16.886 1.29402 10.8257 4.76167 6.52661 9.83376Z" fill="#FF3300"/>
<path d="M18.3367 28.0001L55.3196 36.7986V56.0001H36.1548L18.3367 28.0001Z" fill="#FF3300"/>
<path d="M6.52661 46.1664L18.3363 28.0001L23.7749 55.6896C16.886 54.7579 10.8257 51.2385 6.52661 46.1664Z" fill="#FF3300"/>
</svg>
