<svg width="124" height="36" viewBox="0 0 124 36" fill="none" xmlns="http://www.w3.org/2000/svg">
<rect width="124" height="36" fill="white"/>
<path d="M12.7607 26.0009C12.7607 29.5829 10.279 31.8689 7.087 31.8689C5.66633 31.8689 4.50641 31.428 3.65221 30.492V35.811H0.352295V20.583L3.50835 19.7729V21.6089C4.33557 20.61 5.55843 20.124 7.087 20.124C10.288 20.124 12.7607 22.4099 12.7607 25.9919V26.0009ZM9.41583 26.0009C9.41583 24.0299 8.16599 22.8419 6.51154 22.8419C4.85709 22.8419 3.60725 24.0299 3.60725 26.0009C3.60725 27.9719 4.85709 29.16 6.51154 29.16C8.16599 29.16 9.41583 27.9719 9.41583 26.0009ZM40.3469 19.7729V29.7899C40.3469 34.0289 38.126 35.9819 34.1427 35.9819C32.0477 35.9819 30.0156 35.451 28.7028 34.416L30.0156 32.0399C30.9687 32.8229 32.4523 33.3089 33.873 33.3089C36.0939 33.3089 37.047 32.2739 37.047 30.2129V29.835C36.1748 30.708 34.9879 31.149 33.6752 31.149C30.8158 31.149 28.8017 29.5559 28.8017 26.0189V20.5919L32.1016 19.7729V25.533C32.1016 27.459 32.9468 28.3139 34.4125 28.3139C35.8781 28.3139 37.038 27.342 37.038 25.236V20.5919L40.3379 19.7819L40.3469 19.7729ZM26.6347 19.7729V31.698H23.4787V30.3839C22.6515 31.3829 21.4466 31.8689 19.918 31.8689C16.699 31.8689 14.2173 29.5829 14.2173 26.0009C14.2173 22.4189 16.699 20.133 19.918 20.133C21.3117 20.133 22.4986 20.5739 23.3258 21.5099V20.5919L26.6257 19.7819L26.6347 19.7729ZM23.3978 26.0009C23.3978 24.0299 22.1299 22.8419 20.4935 22.8419C18.857 22.8419 17.5712 24.0299 17.5712 26.0009C17.5712 27.9719 18.839 29.16 20.4935 29.16C22.1479 29.16 23.3978 27.9719 23.3978 26.0009Z" fill="#FF3300"/>
<path d="M0.352295 6.678C0.352295 4.383 2.11465 2.763 4.58734 2.763C6.17885 2.763 7.42868 3.393 7.98616 4.626L5.95406 5.166C5.57641 4.761 5.09087 4.572 4.57835 4.572C3.4544 4.572 2.58221 5.346 2.58221 6.678C2.58221 8.01 3.4544 8.784 4.57835 8.784C5.10885 8.784 5.57641 8.595 5.95406 8.19L7.98616 8.667C7.42868 9.873 6.17885 10.575 4.58734 10.575C2.12364 10.602 0.352295 8.973 0.352295 6.678ZM13.7678 2.772C12.7967 2.772 11.9425 3.078 11.358 3.672V0L9.15507 0.531V10.476H11.358V6.714C11.358 5.319 12.1223 4.671 13.1833 4.671C14.1544 4.671 14.7209 5.238 14.7209 6.471V10.485H16.9238V6.138C16.9238 3.825 15.5661 2.772 13.7678 2.772ZM24.3149 3.069V3.681C23.7574 3.051 22.9752 2.754 22.04 2.754C19.9 2.754 18.2456 4.284 18.2456 6.669C18.2456 9.054 19.891 10.584 22.04 10.584C23.0651 10.584 23.8653 10.26 24.4138 9.594V10.467H26.5178V2.529L24.3149 3.069ZM22.4357 8.784C21.3387 8.784 20.4935 7.992 20.4935 6.678C20.4935 5.364 21.3387 4.572 22.4357 4.572C23.5326 4.572 24.3689 5.364 24.3689 6.678C24.3689 7.992 23.5236 8.784 22.4357 8.784ZM30.5101 3.888V2.529L28.4061 3.033V10.476H30.609V6.894C30.609 5.436 31.4093 4.77 32.6321 4.77C32.803 4.77 32.9378 4.779 33.1267 4.797V2.763C31.9578 2.763 31.0496 3.141 30.5191 3.888H30.5101ZM40.0502 3.042V3.852C39.4747 3.123 38.5936 2.772 37.5415 2.772C35.4465 2.772 33.7471 4.23 33.7471 6.444C33.7471 8.658 35.4375 10.116 37.5415 10.116C38.5306 10.116 39.3668 9.81 39.9423 9.171V9.495C39.9423 10.872 39.2679 11.574 37.7124 11.574C36.7413 11.574 35.6803 11.232 35.0329 10.71L34.1607 12.285C35.0599 12.978 36.4536 13.329 37.8922 13.329C40.6257 13.329 42.1542 12.024 42.1542 9.198V2.529L40.0592 3.051L40.0502 3.042ZM37.9821 8.307C36.8222 8.307 35.977 7.569 35.977 6.444C35.977 5.319 36.8222 4.581 37.9821 4.581C39.142 4.581 39.9783 5.319 39.9783 6.444C39.9783 7.569 39.142 8.307 37.9821 8.307ZM51.4875 6.498C51.3976 4.167 49.6802 2.763 47.5762 2.763C45.2384 2.763 43.512 4.401 43.512 6.678C43.512 8.955 45.2204 10.593 47.8459 10.593C49.2216 10.593 50.2826 10.161 50.984 9.36L49.8151 8.091C49.2846 8.595 48.7091 8.829 47.9089 8.829C47.0367 8.829 46.3713 8.523 46.0116 7.929L51.4875 6.489V6.498ZM47.5762 4.437C48.5023 4.437 49.1767 4.968 49.3835 5.742L45.6789 6.633C45.6789 5.139 46.4792 4.437 47.5762 4.437ZM69.9563 6.498C69.8663 4.167 68.1489 2.763 66.0449 2.763C63.7071 2.763 61.9807 4.401 61.9807 6.678C61.9807 8.955 63.6891 10.593 66.3147 10.593C67.6904 10.593 68.7514 10.161 69.4527 9.36L68.2838 8.091C67.7533 8.595 67.1779 8.829 66.3776 8.829C65.5054 8.829 64.84 8.523 64.4804 7.929L69.9563 6.489V6.498ZM66.0449 4.437C66.971 4.437 67.6454 4.968 67.8522 5.742L64.1477 6.633C64.1477 5.139 64.9479 4.437 66.0449 4.437ZM78.786 6.498C78.6961 4.167 76.9787 2.763 74.8747 2.763C72.5368 2.763 70.8105 4.401 70.8105 6.678C70.8105 8.955 72.5189 10.593 75.1444 10.593C76.5201 10.593 77.5811 10.161 78.2825 9.36L77.1136 8.091C76.5831 8.595 76.0076 8.829 75.2074 8.829C74.3352 8.829 73.6698 8.523 73.3101 7.929L78.786 6.489V6.498ZM74.8747 4.437C75.8008 4.437 76.4752 4.968 76.682 5.742L72.9774 6.633C72.9774 5.139 73.7777 4.437 74.8747 4.437ZM57.341 2.763C56.3969 2.763 55.6147 3.069 55.0482 3.69V0L52.8452 0.54V10.485H54.9493V9.612C55.5068 10.278 56.316 10.602 57.341 10.602C59.4721 10.602 61.1175 9.072 61.1175 6.687C61.1175 4.302 59.4721 2.781 57.341 2.772V2.763ZM56.9634 8.793C55.8664 8.793 55.0302 8.001 55.0302 6.687C55.0302 5.373 55.8664 4.581 56.9634 4.581C58.0604 4.581 58.8966 5.373 58.8966 6.687C58.8966 8.001 58.0694 8.793 56.9634 8.793Z" fill="#012A38"/>
</svg>
