<svg width="124" height="36" viewBox="0 0 124 36" fill="none" xmlns="http://www.w3.org/2000/svg">
<rect width="124" height="36" fill="white"/>
<path d="M93.1573 27.945V16.794L96.4603 16.002V27.756C96.4603 28.728 96.9733 29.259 97.8823 29.259C98.2423 29.259 98.6203 29.151 98.8183 29.043L98.9623 31.608C98.3863 31.797 97.8193 31.887 97.2433 31.887C94.6783 31.887 93.1483 30.492 93.1483 27.945H93.1573ZM113.02 30.654L114.118 28.278C115.135 28.935 116.683 29.376 118.078 29.376C119.608 29.376 120.175 28.971 120.175 28.341C120.175 26.478 113.281 28.386 113.281 23.823C113.281 21.663 115.234 20.133 118.555 20.133C120.121 20.133 121.858 20.493 122.947 21.132L121.849 23.481C120.724 22.842 119.599 22.635 118.564 22.635C117.079 22.635 116.44 23.103 116.44 23.697C116.44 25.65 123.334 23.76 123.334 28.251C123.334 30.375 121.363 31.878 117.952 31.878C116.026 31.878 114.073 31.347 113.011 30.645L113.02 30.654ZM77.2003 19.791V31.716H74.0413V30.402C73.2133 31.401 72.0073 31.887 70.4773 31.887C67.2553 31.887 64.7713 29.601 64.7713 26.019C64.7713 22.437 67.2553 20.151 70.4773 20.151C71.8723 20.151 73.0603 20.592 73.8883 21.528V20.61L77.1913 19.8L77.2003 19.791ZM73.9603 26.019C73.9603 24.048 72.6913 22.86 71.0533 22.86C69.4153 22.86 68.1283 24.048 68.1283 26.019C68.1283 27.99 69.3973 29.178 71.0533 29.178C72.7093 29.178 73.9603 27.99 73.9603 26.019ZM91.6903 26.019C91.6903 29.601 89.2063 31.887 86.0113 31.887C84.4813 31.887 83.2573 31.401 82.4293 30.402V31.716H79.2703V16.794L82.5733 16.002V21.519C83.4193 20.583 84.5893 20.142 86.0113 20.142C89.2153 20.142 91.6903 22.428 91.6903 26.01V26.019ZM88.3423 26.019C88.3423 24.048 87.0913 22.86 85.4353 22.86C83.7793 22.86 82.5283 24.048 82.5283 26.019C82.5283 27.99 83.7793 29.178 85.4353 29.178C87.0913 29.178 88.3423 27.99 88.3423 26.019ZM32.8753 29.025L29.8243 28.305C29.2573 28.917 28.5463 29.178 27.7543 29.178C26.0803 29.178 24.7663 28.008 24.7663 26.019C24.7663 24.03 26.0803 22.86 27.7543 22.86C28.5463 22.86 29.2573 23.148 29.8333 23.751L32.8303 22.941C31.9753 21.15 30.1303 20.142 27.7813 20.142C24.0733 20.142 21.4183 22.581 21.4183 26.01C21.4183 29.439 24.0643 31.878 27.7813 31.878C30.1663 31.878 32.0563 30.825 32.8843 29.007L32.8753 29.025ZM17.6923 28.143L19.4473 30.051C18.3853 31.257 16.8013 31.896 14.7403 31.896C10.7983 31.896 8.23334 29.412 8.23334 26.028C8.23334 22.644 10.8163 20.16 14.3353 20.16C17.5573 20.16 20.2033 22.284 20.2303 25.929L11.7973 27.558C12.2833 28.683 13.3453 29.25 14.8303 29.25C16.0363 29.25 16.9093 28.89 17.6923 28.152V28.143ZM11.4823 25.686L17.0353 24.606C16.7203 23.436 15.7213 22.653 14.3443 22.653C12.6883 22.653 11.5453 23.751 11.4823 25.686ZM7.36034 20.151V23.202C7.08134 23.184 6.87434 23.157 6.62234 23.157C4.79534 23.157 3.58934 24.156 3.58934 26.334V31.716H0.277344V20.601L3.43634 19.791V21.816C4.24634 20.718 5.59634 20.142 7.36034 20.142V20.151ZM43.2163 28.143L44.9713 30.051C43.9093 31.257 42.3253 31.896 40.2643 31.896C36.3223 31.896 33.7573 29.412 33.7573 26.028C33.7573 22.644 36.3403 20.16 39.8593 20.16C43.0813 20.16 45.7273 22.284 45.7543 25.929L37.3213 27.558C37.8073 28.683 38.8693 29.25 40.3543 29.25C41.5603 29.25 42.4333 28.89 43.2163 28.152V28.143ZM37.0063 25.686L42.5593 24.606C42.2443 23.436 41.2453 22.653 39.8683 22.653C38.2123 22.653 37.0693 23.751 37.0063 25.686ZM109.303 28.143L111.058 30.051C109.996 31.257 108.412 31.896 106.351 31.896C102.409 31.896 99.8443 29.412 99.8443 26.028C99.8443 22.644 102.427 20.16 105.946 20.16C109.168 20.16 111.814 22.284 111.841 25.929L103.408 27.558C103.894 28.683 104.956 29.25 106.441 29.25C107.647 29.25 108.52 28.89 109.303 28.152V28.143ZM103.093 25.686L108.646 24.606C108.331 23.436 107.332 22.653 105.955 22.653C104.299 22.653 103.156 23.751 103.093 25.686ZM47.2303 16.803V19.314L50.5333 18.522V16.011L47.2303 16.803ZM47.2303 31.725H50.5333V20.322L47.2303 21.114V31.725ZM64.4833 20.61L61.6483 19.8L61.4323 20.322L60.3433 22.905L60.3253 22.95L58.1653 28.089L56.0773 22.95L55.0063 20.331L54.7903 19.809L51.7123 20.628L52.6933 22.959L56.3833 31.743H59.7943L63.5023 22.959V22.941L64.4833 20.628V20.61Z" fill="#FF3300"/>
<path d="M0.277344 6.678C0.277344 4.383 2.04134 2.763 4.51634 2.763C6.10934 2.763 7.36034 3.393 7.91834 4.626L5.88434 5.166C5.50634 4.761 5.02034 4.572 4.50734 4.572C3.38234 4.572 2.50934 5.346 2.50934 6.678C2.50934 8.01 3.38234 8.784 4.50734 8.784C5.03834 8.784 5.50634 8.595 5.88434 8.19L7.91834 8.667C7.36034 9.873 6.10934 10.575 4.51634 10.575C2.05034 10.602 0.277344 8.973 0.277344 6.678ZM13.7053 2.772C12.7333 2.772 11.8783 3.078 11.2933 3.672V0L9.08834 0.531V10.476H11.2933V6.714C11.2933 5.319 12.0583 4.671 13.1203 4.671C14.0923 4.671 14.6593 5.238 14.6593 6.471V10.485H16.8643V6.138C16.8643 3.825 15.5053 2.772 13.7053 2.772ZM24.2623 3.069V3.681C23.7043 3.051 22.9213 2.754 21.9853 2.754C19.8433 2.754 18.1873 4.284 18.1873 6.669C18.1873 9.054 19.8343 10.584 21.9853 10.584C23.0113 10.584 23.8123 10.26 24.3613 9.594V10.467H26.4673V2.529L24.2623 3.069ZM22.3813 8.784C21.2833 8.784 20.4373 7.992 20.4373 6.678C20.4373 5.364 21.2833 4.572 22.3813 4.572C23.4793 4.572 24.3163 5.364 24.3163 6.678C24.3163 7.992 23.4703 8.784 22.3813 8.784ZM30.4633 3.888V2.529L28.3573 3.033V10.476H30.5623V6.894C30.5623 5.436 31.3633 4.77 32.5873 4.77C32.7583 4.77 32.8933 4.779 33.0823 4.797V2.763C31.9123 2.763 31.0033 3.141 30.4723 3.888H30.4633ZM40.0123 3.042V3.852C39.4363 3.123 38.5543 2.772 37.5013 2.772C35.4043 2.772 33.7033 4.23 33.7033 6.444C33.7033 8.658 35.3953 10.116 37.5013 10.116C38.4913 10.116 39.3283 9.81 39.9043 9.171V9.495C39.9043 10.872 39.2293 11.574 37.6723 11.574C36.7003 11.574 35.6383 11.232 34.9903 10.71L34.1173 12.285C35.0173 12.978 36.4123 13.329 37.8523 13.329C40.5883 13.329 42.1183 12.024 42.1183 9.198V2.529L40.0213 3.051L40.0123 3.042ZM37.9423 8.307C36.7813 8.307 35.9353 7.569 35.9353 6.444C35.9353 5.319 36.7813 4.581 37.9423 4.581C39.1033 4.581 39.9403 5.319 39.9403 6.444C39.9403 7.569 39.1033 8.307 37.9423 8.307ZM51.4603 6.498C51.3703 4.167 49.6513 2.763 47.5453 2.763C45.2053 2.763 43.4773 4.401 43.4773 6.678C43.4773 8.955 45.1873 10.593 47.8153 10.593C49.1923 10.593 50.2543 10.161 50.9563 9.36L49.7863 8.091C49.2553 8.595 48.6793 8.829 47.8783 8.829C47.0053 8.829 46.3393 8.523 45.9793 7.929L51.4603 6.489V6.498ZM47.5453 4.437C48.4723 4.437 49.1473 4.968 49.3543 5.742L45.6463 6.633C45.6463 5.139 46.4473 4.437 47.5453 4.437ZM69.9463 6.498C69.8563 4.167 68.1373 2.763 66.0313 2.763C63.6913 2.763 61.9633 4.401 61.9633 6.678C61.9633 8.955 63.6733 10.593 66.3013 10.593C67.6783 10.593 68.7403 10.161 69.4423 9.36L68.2723 8.091C67.7413 8.595 67.1653 8.829 66.3643 8.829C65.4913 8.829 64.8253 8.523 64.4653 7.929L69.9463 6.489V6.498ZM66.0313 4.437C66.9583 4.437 67.6333 4.968 67.8403 5.742L64.1323 6.633C64.1323 5.139 64.9333 4.437 66.0313 4.437ZM78.7843 6.498C78.6943 4.167 76.9753 2.763 74.8693 2.763C72.5293 2.763 70.8013 4.401 70.8013 6.678C70.8013 8.955 72.5113 10.593 75.1393 10.593C76.5163 10.593 77.5783 10.161 78.2803 9.36L77.1103 8.091C76.5793 8.595 76.0033 8.829 75.2023 8.829C74.3293 8.829 73.6633 8.523 73.3033 7.929L78.7843 6.489V6.498ZM74.8693 4.437C75.7963 4.437 76.4713 4.968 76.6783 5.742L72.9703 6.633C72.9703 5.139 73.7713 4.437 74.8693 4.437ZM57.3193 2.763C56.3743 2.763 55.5913 3.069 55.0243 3.69V0L52.8193 0.54V10.485H54.9253V9.612C55.4833 10.278 56.2933 10.602 57.3193 10.602C59.4523 10.602 61.0993 9.072 61.0993 6.687C61.0993 4.302 59.4523 2.781 57.3193 2.772V2.763ZM56.9413 8.793C55.8433 8.793 55.0063 8.001 55.0063 6.687C55.0063 5.373 55.8433 4.581 56.9413 4.581C58.0393 4.581 58.8763 5.373 58.8763 6.687C58.8763 8.001 58.0483 8.793 56.9413 8.793Z" fill="#012A38"/>
</svg>
