<svg width="125" height="36" viewBox="0 0 125 36" fill="none" xmlns="http://www.w3.org/2000/svg">
<rect x="1" width="124" height="36" fill="white"/>
<path d="M18.4094 28.134L20.1644 30.042C19.1024 31.248 17.5184 31.887 15.4574 31.887C11.5154 31.887 8.95039 29.403 8.95039 26.019C8.95039 22.635 11.5334 20.151 15.0524 20.151C18.2744 20.151 20.9204 22.275 20.9474 25.92L12.5144 27.549C13.0004 28.674 14.0624 29.241 15.5474 29.241C16.7534 29.241 17.6264 28.881 18.4094 28.143V28.134ZM12.1994 25.677L17.7524 24.597C17.4374 23.427 16.4384 22.644 15.0614 22.644C13.4054 22.644 12.2624 23.742 12.1994 25.677ZM39.6944 28.134L41.4494 30.042C40.3874 31.248 38.8034 31.887 36.7424 31.887C32.8004 31.887 30.2354 29.403 30.2354 26.019C30.2354 22.635 32.8184 20.151 36.3374 20.151C39.5594 20.151 42.2054 22.275 42.2324 25.92L33.7994 27.549C34.2854 28.674 35.3474 29.241 36.8324 29.241C38.0384 29.241 38.9114 28.881 39.6944 28.143V28.134ZM33.4844 25.677L39.0374 24.597C38.7224 23.427 37.7234 22.644 36.3464 22.644C34.6904 22.644 33.5474 23.742 33.4844 25.677ZM8.06839 20.142V23.193C7.78939 23.175 7.58238 23.148 7.33038 23.148C5.50338 23.148 4.29738 24.147 4.29738 26.325V31.707H0.994385V20.592L4.15338 19.782V21.807C4.96338 20.709 6.31338 20.133 8.07738 20.133L8.06839 20.142ZM29.3534 31.167C28.6784 31.653 27.6794 31.887 26.6804 31.887C23.9714 31.887 22.4234 30.51 22.4234 27.792V18.585L25.7264 17.793V20.574H28.5434V23.121H25.7264V27.765C25.7264 28.737 26.2394 29.268 27.1214 29.268C27.6074 29.268 28.0934 29.124 28.4804 28.845L29.3534 31.176V31.167ZM64.3634 31.167C63.6884 31.653 62.6894 31.887 61.6904 31.887C58.9814 31.887 57.4334 30.51 57.4334 27.792V18.585L60.7364 17.793V20.574H63.5534V23.121H60.7364V27.765C60.7364 28.737 61.2494 29.268 62.1314 29.268C62.6174 29.268 63.1034 29.124 63.4904 28.845L64.3634 31.176V31.167ZM65.8394 16.794V19.305L69.1424 18.513V16.002L65.8394 16.794ZM65.8394 31.716H69.1424V20.313L65.8394 21.105V31.716ZM96.2774 25.191V31.716H92.9744V25.695C92.9744 23.85 92.1284 23.004 90.6614 23.004C89.0684 23.004 87.9254 23.976 87.9254 26.082V31.725H84.6224V20.61L87.7814 19.8V21.654C88.6724 20.682 90.0044 20.151 91.5524 20.151C94.2434 20.151 96.2774 21.717 96.2774 25.2V25.191ZM55.3724 25.191V31.716H52.0694V25.695C52.0694 23.85 51.2234 23.004 49.7564 23.004C48.1634 23.004 47.0204 23.976 47.0204 26.082V31.725H43.7174V20.61L46.8764 19.8V21.654C47.7674 20.682 49.0994 20.151 50.6474 20.151C53.3384 20.151 55.3724 21.717 55.3724 25.2V25.191ZM70.6184 26.019C70.6184 22.581 73.2644 20.151 76.8914 20.151C80.5184 20.151 83.1464 22.59 83.1464 26.019C83.1464 29.448 80.5184 31.887 76.8914 31.887C73.2644 31.887 70.6184 29.448 70.6184 26.019ZM79.7984 26.019C79.7984 24.048 78.5474 22.86 76.8914 22.86C75.2354 22.86 73.9664 24.048 73.9664 26.019C73.9664 27.99 75.2354 29.178 76.8914 29.178C78.5474 29.178 79.7984 27.99 79.7984 26.019Z" fill="#FF3300"/>
<path d="M0.994385 6.678C0.994385 4.383 2.75838 2.763 5.23338 2.763C6.82639 2.763 8.07738 3.393 8.63538 4.626L6.60139 5.166C6.22339 4.761 5.73738 4.572 5.22438 4.572C4.09938 4.572 3.22638 5.346 3.22638 6.678C3.22638 8.01 4.09938 8.784 5.22438 8.784C5.75538 8.784 6.22339 8.595 6.60139 8.19L8.63538 8.667C8.07738 9.873 6.82639 10.575 5.23338 10.575C2.76738 10.602 0.994385 8.973 0.994385 6.678ZM14.4224 2.772C13.4504 2.772 12.5954 3.078 12.0104 3.672V0L9.80539 0.531V10.476H12.0104V6.714C12.0104 5.319 12.7754 4.671 13.8374 4.671C14.8094 4.671 15.3764 5.238 15.3764 6.471V10.485H17.5814V6.138C17.5814 3.825 16.2224 2.772 14.4224 2.772ZM24.9794 3.069V3.681C24.4214 3.051 23.6384 2.754 22.7024 2.754C20.5604 2.754 18.9044 4.284 18.9044 6.669C18.9044 9.054 20.5514 10.584 22.7024 10.584C23.7284 10.584 24.5294 10.26 25.0784 9.594V10.467H27.1844V2.529L24.9794 3.069ZM23.0984 8.784C22.0004 8.784 21.1544 7.992 21.1544 6.678C21.1544 5.364 22.0004 4.572 23.0984 4.572C24.1964 4.572 25.0334 5.364 25.0334 6.678C25.0334 7.992 24.1874 8.784 23.0984 8.784ZM31.1804 3.888V2.529L29.0744 3.033V10.476H31.2794V6.894C31.2794 5.436 32.0804 4.77 33.3044 4.77C33.4754 4.77 33.6104 4.779 33.7994 4.797V2.763C32.6294 2.763 31.7204 3.141 31.1894 3.888H31.1804ZM40.7294 3.042V3.852C40.1534 3.123 39.2714 2.772 38.2184 2.772C36.1214 2.772 34.4204 4.23 34.4204 6.444C34.4204 8.658 36.1124 10.116 38.2184 10.116C39.2084 10.116 40.0454 9.81 40.6214 9.171V9.495C40.6214 10.872 39.9464 11.574 38.3894 11.574C37.4174 11.574 36.3554 11.232 35.7074 10.71L34.8344 12.285C35.7344 12.978 37.1294 13.329 38.5694 13.329C41.3054 13.329 42.8354 12.024 42.8354 9.198V2.529L40.7384 3.051L40.7294 3.042ZM38.6594 8.307C37.4984 8.307 36.6524 7.569 36.6524 6.444C36.6524 5.319 37.4984 4.581 38.6594 4.581C39.8204 4.581 40.6574 5.319 40.6574 6.444C40.6574 7.569 39.8204 8.307 38.6594 8.307ZM52.1774 6.498C52.0874 4.167 50.3684 2.763 48.2624 2.763C45.9224 2.763 44.1944 4.401 44.1944 6.678C44.1944 8.955 45.9044 10.593 48.5324 10.593C49.9094 10.593 50.9714 10.161 51.6734 9.36L50.5034 8.091C49.9724 8.595 49.3964 8.829 48.5954 8.829C47.7224 8.829 47.0564 8.523 46.6964 7.929L52.1774 6.489V6.498ZM48.2624 4.437C49.1894 4.437 49.8644 4.968 50.0714 5.742L46.3634 6.633C46.3634 5.139 47.1644 4.437 48.2624 4.437ZM70.6634 6.498C70.5734 4.167 68.8544 2.763 66.7484 2.763C64.4084 2.763 62.6804 4.401 62.6804 6.678C62.6804 8.955 64.3904 10.593 67.0184 10.593C68.3954 10.593 69.4574 10.161 70.1594 9.36L68.9894 8.091C68.4584 8.595 67.8824 8.829 67.0814 8.829C66.2084 8.829 65.5424 8.523 65.1824 7.929L70.6634 6.489V6.498ZM66.7484 4.437C67.6754 4.437 68.3504 4.968 68.5574 5.742L64.8494 6.633C64.8494 5.139 65.6504 4.437 66.7484 4.437ZM79.5014 6.498C79.4114 4.167 77.6924 2.763 75.5864 2.763C73.2464 2.763 71.5184 4.401 71.5184 6.678C71.5184 8.955 73.2284 10.593 75.8564 10.593C77.2334 10.593 78.2954 10.161 78.9974 9.36L77.8274 8.091C77.2964 8.595 76.7204 8.829 75.9194 8.829C75.0464 8.829 74.3804 8.523 74.0204 7.929L79.5014 6.489V6.498ZM75.5864 4.437C76.5134 4.437 77.1884 4.968 77.3954 5.742L73.6874 6.633C73.6874 5.139 74.4884 4.437 75.5864 4.437ZM58.0364 2.763C57.0914 2.763 56.3084 3.069 55.7414 3.69V0L53.5364 0.54V10.485H55.6424V9.612C56.2004 10.278 57.0104 10.602 58.0364 10.602C60.1694 10.602 61.8164 9.072 61.8164 6.687C61.8164 4.302 60.1694 2.781 58.0364 2.772V2.763ZM57.6584 8.793C56.5604 8.793 55.7234 8.001 55.7234 6.687C55.7234 5.373 56.5604 4.581 57.6584 4.581C58.7564 4.581 59.5934 5.373 59.5934 6.687C59.5934 8.001 58.7654 8.793 57.6584 8.793Z" fill="#012A38"/>
</svg>
