<svg width="124" height="36" viewBox="0 0 124 36" fill="none" xmlns="http://www.w3.org/2000/svg">
<rect width="124" height="36" fill="white"/>
<path d="M67.2944 29.0162C66.4664 30.8342 64.5854 31.8872 62.1914 31.8872C58.4834 31.8872 55.8284 29.4482 55.8284 26.0192C55.8284 22.5902 58.4744 20.1512 62.1914 20.1512C64.5404 20.1512 66.3854 21.1502 67.2404 22.9502L64.2434 23.7602C63.6764 23.1482 62.9564 22.8692 62.1644 22.8692C60.4904 22.8692 59.1764 24.0392 59.1764 26.0282C59.1764 28.0172 60.4904 29.1872 62.1644 29.1872C62.9474 29.1872 63.6674 28.9172 64.2344 28.3142L67.2854 29.0342L67.2944 29.0162ZM15.0494 29.2322C13.5644 29.2322 12.5024 28.6562 12.0164 27.5402L20.4494 25.9112C20.4314 22.2662 17.7764 20.1422 14.5544 20.1422C11.0354 20.1422 8.45237 22.5992 8.45237 26.0102C8.45237 29.4212 11.0174 31.8782 14.9594 31.8782C17.0204 31.8782 18.6044 31.2392 19.6664 30.0332L17.9114 28.1252C17.1284 28.8632 16.2554 29.2232 15.0494 29.2232V29.2322ZM14.5634 22.6352C15.9404 22.6352 16.9394 23.4182 17.2544 24.5882L11.7014 25.6682C11.7644 23.7422 12.9074 22.6352 14.5634 22.6352ZM3.65537 21.8072V19.7822L0.487366 20.6012V31.7162H3.79037V26.3342C3.79037 24.1472 4.99637 23.1572 6.82337 23.1572C7.07537 23.1572 7.29137 23.1752 7.56137 23.2022V20.1512C5.80637 20.1512 4.44737 20.7272 3.63737 21.8252L3.65537 21.8072ZM37.8644 21.8072V19.7822L34.7054 20.5922V31.7072H38.0084V26.3252C38.0084 24.1382 39.2144 23.1482 41.0414 23.1482C41.2934 23.1482 41.5094 23.1662 41.7794 23.1932V20.1422C40.0244 20.1422 38.6654 20.7182 37.8554 21.8162L37.8644 21.8072ZM49.2584 29.2232C47.7734 29.2232 46.7114 28.6472 46.2254 27.5312L54.6584 25.9022C54.6404 22.2572 51.9854 20.1332 48.7634 20.1332C45.2444 20.1332 42.6614 22.5902 42.6614 26.0012C42.6614 29.4122 45.2264 31.8692 49.1684 31.8692C51.2294 31.8692 52.8134 31.2302 53.8754 30.0242L52.1204 28.1162C51.3374 28.8542 50.4644 29.2142 49.2584 29.2142V29.2232ZM48.7724 22.6262C50.1494 22.6262 51.1484 23.4092 51.4634 24.5792L45.9104 25.6592C45.9734 23.7332 47.1164 22.6262 48.7724 22.6262ZM33.5264 20.5922L30.6914 19.7822L30.4754 20.3042L29.3864 22.8872L29.3684 22.9322L27.2084 28.0712L25.1204 22.9322L24.0494 20.3132L23.8334 19.7912L20.7554 20.6102L21.7364 22.9412L25.4264 31.7252H28.8374L32.5454 22.9412V22.9232L33.5264 20.6102V20.5922Z" fill="#FF3300"/>
<path d="M0.487366 6.678C0.487366 4.383 2.25137 2.763 4.72637 2.763C6.31937 2.763 7.57037 3.393 8.12837 4.626L6.09437 5.166C5.71637 4.761 5.23037 4.572 4.71737 4.572C3.59237 4.572 2.71937 5.346 2.71937 6.678C2.71937 8.01 3.59237 8.784 4.71737 8.784C5.24837 8.784 5.71637 8.595 6.09437 8.19L8.12837 8.667C7.57037 9.873 6.31937 10.575 4.72637 10.575C2.26037 10.602 0.487366 8.973 0.487366 6.678ZM13.9154 2.772C12.9434 2.772 12.0884 3.078 11.5034 3.672V0L9.29837 0.531V10.476H11.5034V6.714C11.5034 5.319 12.2684 4.671 13.3304 4.671C14.3024 4.671 14.8694 5.238 14.8694 6.471V10.485H17.0744V6.138C17.0744 3.825 15.7154 2.772 13.9154 2.772ZM24.4724 3.069V3.681C23.9144 3.051 23.1314 2.754 22.1954 2.754C20.0534 2.754 18.3974 4.284 18.3974 6.669C18.3974 9.054 20.0444 10.584 22.1954 10.584C23.2214 10.584 24.0224 10.26 24.5714 9.594V10.467H26.6774V2.529L24.4724 3.069ZM22.5914 8.784C21.4934 8.784 20.6474 7.992 20.6474 6.678C20.6474 5.364 21.4934 4.572 22.5914 4.572C23.6894 4.572 24.5264 5.364 24.5264 6.678C24.5264 7.992 23.6804 8.784 22.5914 8.784ZM30.6734 3.888V2.529L28.5674 3.033V10.476H30.7724V6.894C30.7724 5.436 31.5734 4.77 32.7974 4.77C32.9684 4.77 33.1034 4.779 33.2924 4.797V2.763C32.1224 2.763 31.2134 3.141 30.6824 3.888H30.6734ZM40.2224 3.042V3.852C39.6464 3.123 38.7644 2.772 37.7114 2.772C35.6144 2.772 33.9134 4.23 33.9134 6.444C33.9134 8.658 35.6054 10.116 37.7114 10.116C38.7014 10.116 39.5384 9.81 40.1144 9.171V9.495C40.1144 10.872 39.4394 11.574 37.8824 11.574C36.9104 11.574 35.8484 11.232 35.2004 10.71L34.3274 12.285C35.2274 12.978 36.6224 13.329 38.0624 13.329C40.7984 13.329 42.3284 12.024 42.3284 9.198V2.529L40.2314 3.051L40.2224 3.042ZM38.1524 8.307C36.9914 8.307 36.1454 7.569 36.1454 6.444C36.1454 5.319 36.9914 4.581 38.1524 4.581C39.3134 4.581 40.1504 5.319 40.1504 6.444C40.1504 7.569 39.3134 8.307 38.1524 8.307ZM51.6704 6.498C51.5804 4.167 49.8614 2.763 47.7554 2.763C45.4154 2.763 43.6874 4.401 43.6874 6.678C43.6874 8.955 45.3974 10.593 48.0254 10.593C49.4024 10.593 50.4644 10.161 51.1664 9.36L49.9964 8.091C49.4654 8.595 48.8894 8.829 48.0884 8.829C47.2154 8.829 46.5494 8.523 46.1894 7.929L51.6704 6.489V6.498ZM47.7554 4.437C48.6824 4.437 49.3574 4.968 49.5644 5.742L45.8564 6.633C45.8564 5.139 46.6574 4.437 47.7554 4.437ZM70.1564 6.498C70.0664 4.167 68.3474 2.763 66.2414 2.763C63.9014 2.763 62.1734 4.401 62.1734 6.678C62.1734 8.955 63.8834 10.593 66.5114 10.593C67.8884 10.593 68.9504 10.161 69.6524 9.36L68.4824 8.091C67.9514 8.595 67.3754 8.829 66.5744 8.829C65.7014 8.829 65.0354 8.523 64.6754 7.929L70.1564 6.489V6.498ZM66.2414 4.437C67.1684 4.437 67.8434 4.968 68.0504 5.742L64.3424 6.633C64.3424 5.139 65.1434 4.437 66.2414 4.437ZM78.9944 6.498C78.9044 4.167 77.1854 2.763 75.0794 2.763C72.7394 2.763 71.0114 4.401 71.0114 6.678C71.0114 8.955 72.7214 10.593 75.3494 10.593C76.7264 10.593 77.7884 10.161 78.4904 9.36L77.3204 8.091C76.7894 8.595 76.2134 8.829 75.4124 8.829C74.5394 8.829 73.8734 8.523 73.5134 7.929L78.9944 6.489V6.498ZM75.0794 4.437C76.0064 4.437 76.6814 4.968 76.8884 5.742L73.1804 6.633C73.1804 5.139 73.9814 4.437 75.0794 4.437ZM57.5294 2.763C56.5844 2.763 55.8014 3.069 55.2344 3.69V0L53.0294 0.54V10.485H55.1354V9.612C55.6934 10.278 56.5034 10.602 57.5294 10.602C59.6624 10.602 61.3094 9.072 61.3094 6.687C61.3094 4.302 59.6624 2.781 57.5294 2.772V2.763ZM57.1514 8.793C56.0534 8.793 55.2164 8.001 55.2164 6.687C55.2164 5.373 56.0534 4.581 57.1514 4.581C58.2494 4.581 59.0864 5.373 59.0864 6.687C59.0864 8.001 58.2584 8.793 57.1514 8.793Z" fill="#012A38"/>
</svg>
