<svg width="15" height="15" viewBox="0 0 15 15" fill="none" xmlns="http://www.w3.org/2000/svg">
<g id="Group">
<path id="Vector" d="M4.88135 7.45638L14.7307 5.10748V3.05176e-05H9.62329L4.88135 7.45638Z" fill="#012A38"/>
<path id="Vector_2" d="M0 7.36604C0 7.97706 0.0744807 8.57015 0.215166 9.13841L4.88124 7.4557L0.176547 5.75781C0.0620672 6.27504 0 6.81296 0 7.36466V7.36604Z" fill="#012A38"/>
<path id="Vector_3" d="M1.73462 2.61727L4.87936 7.45575L6.32897 0.0725098C4.49316 0.330434 2.87528 1.26558 1.73462 2.61727Z" fill="#012A38"/>
<path id="Vector_4" d="M4.8811 7.45508L14.7305 9.8026V14.91H9.62304L4.8811 7.45508Z" fill="#012A38"/>
<path id="Vector_5" d="M1.73478 12.2934L4.87952 7.45496L6.32775 14.8368C4.49194 14.5789 2.87406 13.6438 1.7334 12.2921L1.73478 12.2934Z" fill="#012A38"/>
</g>
</svg>
