<svg width="21" height="20" viewBox="0 0 21 20" fill="none" xmlns="http://www.w3.org/2000/svg">
<path d="M10.8473 0.0861816C11.5368 0.0861816 12.2263 0.0861808 12.9158 0.25855L10.8473 4.22304C7.7447 4.05067 4.98679 6.46383 4.81442 9.56647C4.64205 12.6691 7.05522 15.427 10.1579 15.5994H10.8473C12.2263 15.5994 13.6052 15.0823 14.6395 14.2204L16.8803 18.0126C15.1566 19.2191 13.0881 19.9086 10.8473 19.9086C5.33153 20.081 0.677564 15.9441 0.505195 10.4283C0.332826 4.91251 4.46968 0.258551 9.98549 0.0861816H10.8473ZM17.9145 8.53226L20.5 12.8415L17.9145 16.9783L15.5013 12.8415H10.5026L13.0881 8.53226H17.9145ZM13.7776 6.98094C13.7776 6.29146 13.95 5.60199 14.2947 5.08488C14.6395 4.56777 15.3289 4.05067 15.846 3.70593L16.1908 3.53356C16.8803 3.18882 17.0526 3.01645 17.0526 2.67172C17.0526 2.32698 16.5355 1.98224 16.1908 1.98224C15.5013 1.98224 14.9842 2.32698 14.6395 3.01645L13.7776 2.15461C13.95 1.80987 14.2947 1.46513 14.6395 1.12039C15.1566 0.775657 15.6737 0.775657 16.1908 0.775657C16.7079 0.775657 17.3974 0.948026 17.7421 1.29276C18.0868 1.6375 18.4316 2.15461 18.4316 2.67172C18.4316 3.53356 17.9145 4.22304 16.8803 4.56777L16.3631 4.91251C15.846 5.25725 15.5013 5.42962 15.3289 5.94673H18.4316V7.15331L13.7776 6.98094Z" fill="#012A38"/>
</svg>
